<?xml version="1.0" standalone="no"?>
<!DOCTYPE svg PUBLIC "-//W3C//DTD SVG 20010904//EN"
 "http://www.w3.org/TR/2001/REC-SVG-20010904/DTD/svg10.dtd">
<svg version="1.0" xmlns="http://www.w3.org/2000/svg"
 width="700.000000pt" height="700.000000pt" viewBox="0 0 700.000000 700.000000"
 preserveAspectRatio="xMidYMid meet">
<metadata>
Created by potrace 1.14, written by Peter Selinger 2001-2017
</metadata>
<g transform="translate(0.000000,700.000000) scale(0.100000,-0.100000)"
fill="#000000" stroke="none">
<path d="M0 3500 l0 -3500 3500 0 3500 0 0 3500 0 3500 -3500 0 -3500 0 0
-3500z m3975 2990 c137 -8 347 -28 352 -33 3 -4 -76 -469 -81 -474 -3 -3 -59
-1 -125 6 -150 14 -529 14 -698 0 -747 -61 -1353 -307 -1758 -714 -511 -513
-715 -1325 -569 -2271 118 -767 465 -1327 1033 -1665 246 -147 548 -253 881
-309 240 -40 317 -45 702 -45 l376 0 20 -40 c70 -144 236 -226 389 -195 119
25 191 81 240 185 25 53 28 71 28 160 0 95 -2 103 -34 163 -39 72 -91 121
-171 160 -47 23 -68 27 -140 27 -71 0 -94 -4 -141 -26 -32 -15 -76 -46 -99
-69 -47 -47 -96 -143 -106 -206 -6 -40 -8 -42 -47 -48 -97 -14 -579 -18 -704
-7 -372 34 -682 116 -972 256 -219 106 -371 213 -540 378 -349 343 -549 790
-627 1402 -26 197 -26 677 -1 855 95 672 377 1146 876 1471 314 206 693 333
1191 401 148 20 206 23 557 23 254 0 396 -4 402 -10 7 -7 -2 -81 -30 -230 -22
-121 -42 -221 -44 -223 -2 -2 -52 2 -112 9 -140 17 -510 17 -633 0 -457 -62
-803 -229 -1085 -523 -281 -293 -456 -666 -530 -1128 -44 -274 -3 -669 101
-980 47 -142 169 -384 251 -500 87 -122 252 -287 373 -372 226 -160 522 -269
845 -309 128 -17 497 -17 640 -1 234 26 413 59 673 123 112 28 205 49 206 47
1 -1 47 -236 101 -522 79 -421 95 -520 84 -526 -22 -14 -294 -88 -443 -121
-164 -36 -401 -73 -576 -91 -164 -16 -631 -16 -790 0 -1059 111 -1887 606
-2356 1407 -333 570 -455 1323 -343 2110 77 539 272 1017 566 1388 86 109 276
299 388 390 610 492 1507 737 2480 677z m575 -65 c47 -8 108 -20 136 -25 l51
-11 -105 -522 c-58 -287 -107 -524 -109 -526 -4 -5 -275 48 -282 55 -3 3 158
942 176 1022 6 27 18 27 133 7z m367 -75 c48 -12 118 -30 154 -41 l67 -19
-130 -518 c-71 -284 -133 -520 -136 -524 -6 -6 -249 57 -260 68 -2 1 40 218
93 481 122 600 116 573 120 573 3 0 44 -9 92 -20z m-817 -2895 l0 -1115 -247
2 -248 3 -3 220 c-2 121 0 622 4 1113 l6 892 244 0 244 0 0 -1115z m1980 905
l0 -210 -310 0 -310 0 0 -905 0 -905 -250 0 -250 0 0 905 0 905 -300 0 -300 0
0 210 0 210 860 0 860 0 0 -210z m-1545 -3024 c96 -44 147 -128 149 -241 0
-61 -4 -78 -30 -125 -57 -101 -144 -147 -261 -137 -112 9 -196 80 -229 195
-35 120 23 249 138 306 70 35 162 36 233 2z"/>
</g>
</svg>
