<svg xmlns="http://www.w3.org/2000/svg" viewBox="0 0 9790.33 2356.33"><defs><style>.cls-1{fill:#e2411b;}.cls-1,.cls-2{fill-rule:evenodd;}.cls-2{fill:#fff;}</style></defs><title>finalAsset 1</title><g id="Layer_2" data-name="Layer 2"><g id="Layer_1-2" data-name="Layer 1"><polygon class="cls-1" points="2155.88 2246.33 4067.08 110.33 8367.3 110.33 6520.41 2246.33 2155.88 2246.33"/><path class="cls-2" d="M9599.15,590.27c46.69-3.41,87.43,30.15,91,75s-31.41,83.9-78.1,87.32-87.43-30.15-91-75,31.42-83.91,78.11-87.32M9275.33,846.33v1246h-189V678.72c.21,0,399.63,2,409.28,3.49,7.22,52.57,50.81,93.92,103.42,96.36,65.31,3,117.83-48.16,118-104.23.09-35.67-19.36-106.81-104.4-108.75-94.73-2.16-115.43,87.79-115.28,83.24-9.49,4.39-441-.56-441-.56L9052,2092.33l-190.65,0v-1246h-506v-349h1435v349Zm-1546,1407h414v103h-414Zm0-117,414-.4v91.4l-414,.11Zm223-1266,191-216.91V2105.33l-191,.57Zm-223,253,192-218.18V2106.33h-192ZM7032,2253.33h435.21l31.27,103H7058.4Zm-30.07-117h429.58l27.63,91H7025.25Zm136.72-341.79,139.84-164.6,145.86,480.39H7230Zm-143.17,319.79-29.85-116.48L7116,1820.91l88,293.42ZM3424.18,327.82c-4.72-.11,89.55-15.61,92.51-110.16,2.66-84.88-69.93-108.32-106.87-110.27-58.05-3.06-113.93,46.37-114.38,111.64-.37,52.58,40,98.39,94.09,108.58.76,7.61.33,216,.1,306l-187.3,204.09V18.33h414V386.6L3421.11,599.32c-.37-100-.45-265.1,3.07-271.5M2791.33,18.33h80v341h-80Zm-100.4,0h74.4l.11,341h-74.11ZM2028.24,917.64a84.4,84.4,0,1,1-77.74-90.83,84.47,84.47,0,0,1,77.74,90.83m107.09-162.31h689v331h-690v451h442.15l-313.19,341h-533V18.33h931v169H1925.39c0-.56-.17,606.32-4.72,615.79,4.72-.14-88.58,20.52-86.34,115.09,2,84.89,75.79,104.31,112.8,104.22,58.14-.14,111.23-52.57,108.09-117.77-2.53-52.52-45.41-96-99.94-103.24-1.5-9.64.41-584.26.41-584.09h705.64v142h-526ZM1296.14,374l66.95-334.92q50.61,11.17,99.89,25.3L1380.2,397.44q-43.26-13.21-84.06-23.43m-117.59-24.44,58.12-333.38q50.24,7.13,99.73,17.23L1269.6,367.6q-47.16-11-91-18m62.39,1273.16a84.77,84.77,0,1,1-84.77,84.77,84.76,84.76,0,0,1,84.77-84.77M173.49,935.37c9.57,480.6,257.13,861.83,960.87,804.75-.5-4.75,27.3,87.8,121.74,78.3,84.78-8.53,98.57-84.47,95.66-121.8-4.58-58.66-61.1-108.21-126.09-100-52.35,6.57-92.61,53.18-95.65,108.75-157.53,23.47-910.93,68-921.74-765.6C197.84,135,1013,187,1173.49,200.22l-26,144.73C515.54,259.17,398.75,764.89,396,934c-3.72,150.89,70.46,823.22,984.2,555.08l64.39,333.06C693.55,2063.43-21.12,1705,.48,924.78c21-759,637-983,1206.63-912.52l-24.92,153.16c-48.57-9.53-1014.45-118.87-1008.7,770M3322.68,204a84.74,84.74,0,1,1,67.37,99.15A84.73,84.73,0,0,1,3322.68,204M9275.33,2227.33l-414-.11V2122.33l414,.44Zm0,129h-414v-103h414Z"/><path class="cls-2" d="M3617,1763.33h737.38v349h-1156v-1031l419-468Zm-1028.74,1,323.12-.78v352.78h-638l59.79-66.91,4.32-4.82,61.32-68.53Zm3196.12,8v340h-1182v-1866h1134v349h-711v379h681v353h-681v445Zm1954-1522h419v103l-13,15L7833.58,727.61l-51.16,59.13-47.09,54.59Zm-1644,1862,4.36-1866H6901s501.8.26,540.68,479.62c31.46,387.93-331.39,505.77-331.39,505.77v13.09s29.07-8.73,109,61c16.24,14.17,35.85,44.8,51.71,72.54l-315,364.32c-9-71.22-35.54-209.11-111.71-297.34-90-104.24-327-65.4-327-65.4v732.36Zm428-1566.18-4.34,522c698.12,60.17,650.63-605.31,4.34-522"/></g></g></svg>