<svg xmlns="http://www.w3.org/2000/svg" viewBox="0 0 3000.12 2999.75"><defs><style>.cls-1{fill:#e2411b;}.cls-2{fill:#fff;fill-rule:evenodd;}</style></defs><title>finalLogo-icon</title><g id="Layer_2" data-name="Layer 2"><g id="Layer_1-2" data-name="Layer 1"><polygon class="cls-1" points="577.12 1233.65 577.12 1770.61 2135.61 1773.65 3000.12 1226.11 3000.12 1226.08 577.12 1233.65"/><path class="cls-2" d="M2054.32,592.9,2161.81,63.44q80,17.9,158,40.47L2187.26,630.35q-68.4-21.12-132.94-37.45m-186-39.18,93.5-527.09q79.49,11.51,157.79,27.71l-107.25,528.3q-74.58-17.53-144-28.92M2094.64,2702c0,74.26-59.87,134.46-133.73,134.46s-133.73-60.2-133.73-134.46,59.87-134.46,133.73-134.46,133.73,60.2,133.73,134.46m-539-1737.33,247.44.7-2.94,1112.3-248.06-.71ZM274.74,1475.78c13,760.26,403.11,1364.41,1517.33,1277.29-.79-7.52,42.81,139,192.35,124.4,134.24-13.11,156.4-133.17,151.95-192.22-7-92.82-96.22-171.45-199.13-158.83-82.89,10.16-146.83,83.7-151.9,171.58-249.45,36.43-1442.21,103.48-1455.56-1215.18C316.89,209.94,1607,295.86,1861,317.45l-41.75,228.82C819.22,407.73,632.07,1207.14,627,1474.67c-6.56,238.66,107.81,1302.48,1555.38,882.47l100.42,527.11C1092.85,3262.5-36.79,2692.34.92,1458.25,37.61,257.7,1013.63-93.72,1915,20.29l-40.14,242.15C1798.05,247.15,269.64,69.83,274.74,1475.78m1958-301.13-302.58-.87.6-209.13,860.4,2.44-.6,208.56-309.4-.88-2.59,904.88-248.41-.71Z"/></g></g></svg>